REM MD5 11cef4db08c5ea002725b9ecaf3eba66
FILE "Marranos en Guerra (Spain).bin" BINARY
  TRACK 01 MODE2/2352
    INDEX 01 00:00:00
  TRACK 02 AUDIO
    INDEX 00 39:01:47
    INDEX 01 39:03:47
  TRACK 03 AUDIO
    INDEX 00 41:50:45
    INDEX 01 41:52:45
REM LEADOUT 43:02:41
